<svg width="20" height="20" viewBox="0 0 20 20" fill="none" xmlns="http://www.w3.org/2000/svg">
<g clip-path="url(#clip0_374_698)">
<path d="M10 20C15.5417 20 20 15.5417 20 10C20 4.4583 15.5417 0 10 0C4.4583 0 0 4.4583 0 10C0 15.5417 4.4583 20 10 20Z" fill="transparent"/>
<path d="M12.75 11.5835C12.75 10.1252 11.875 9.6252 10.125 9.4169C8.875 9.2502 8.625 8.9169 8.625 8.3335C8.625 7.7501 9.0417 7.3752 9.875 7.3752C10.625 7.3752 11.0417 7.6252 11.25 8.2502C11.2917 8.3752 11.4167 8.4585 11.5417 8.4585H12.2083C12.375 8.4585 12.5 8.3335 12.5 8.1669V8.1252C12.3333 7.2085 11.5833 6.5002 10.625 6.4169V5.4169C10.625 5.2502 10.5 5.1252 10.2917 5.0835H9.6667C9.5 5.0835 9.375 5.2085 9.3333 5.4169V6.3752C8.0833 6.5419 7.2917 7.3752 7.2917 8.4169C7.2917 9.7919 8.125 10.3335 9.875 10.5419C11.0417 10.7502 11.4167 11.0002 11.4167 11.6669C11.4167 12.3336 10.8333 12.7919 10.0417 12.7919C8.9583 12.7919 8.5833 12.3335 8.4583 11.7085C8.4167 11.5419 8.2917 11.4585 8.1667 11.4585H7.4583C7.2917 11.4585 7.1667 11.5835 7.1667 11.7502V11.7919C7.3333 12.8335 8 13.5835 9.375 13.7919V14.7919C9.375 14.9585 9.5 15.0835 9.7083 15.1252H10.3333C10.5 15.1252 10.625 15.0002 10.6667 14.7919V13.7919C11.9167 13.5835 12.75 12.7085 12.75 11.5835Z" fill="white"/>
<path d="M7.875 15.9581C4.625 14.7915 2.9583 11.1665 4.1667 7.9581C4.7917 6.2081 6.1667 4.8748 7.875 4.2498C8.0417 4.1665 8.125 4.0415 8.125 3.8331V3.2498C8.125 3.0831 8.0417 2.9581 7.875 2.9165C7.8333 2.9165 7.75 2.9165 7.7083 2.9581C3.75 4.2081 1.5833 8.4165 2.8333 12.3748C3.5833 14.7081 5.375 16.4998 7.7083 17.2498C7.875 17.3331 8.0417 17.2498 8.0833 17.0831C8.125 17.0415 8.125 16.9998 8.125 16.9165V16.3331C8.125 16.2081 8 16.0415 7.875 15.9581ZM12.2917 2.9581C12.125 2.8748 11.9583 2.9581 11.9167 3.1248C11.875 3.1665 11.875 3.2081 11.875 3.2915V3.8748C11.875 4.0415 12 4.2081 12.125 4.2915C15.375 5.4581 17.0417 9.0831 15.8333 12.2915C15.2083 14.0415 13.8333 15.3748 12.125 15.9998C11.9583 16.0831 11.875 16.2081 11.875 16.4165V16.9998C11.875 17.1665 11.9583 17.2915 12.125 17.3331C12.1667 17.3331 12.25 17.3331 12.2917 17.2915C16.25 16.0415 18.4167 11.8331 17.1667 7.8748C16.4167 5.4998 14.5833 3.7081 12.2917 2.9581Z" fill="white"/>
</g>
<defs>
<clipPath id="clip0_374_698">
<rect width="20" height="20" fill="white"/>
</clipPath>
</defs>
</svg>

